<svg version="1.1" xmlns="http://www.w3.org/2000/svg" xmlns:xlink="http://www.w3.org/1999/xlink" width="1066.2" height="886"><defs><linearGradient id="ztVFcfLXVoxZ" x1="400px" x2="400px" y1="3554.0000100135803px" y2="3047.8000078678133px" gradientUnits="userSpaceOnUse"><stop offset="0" stop-color="rgb(211,211,211)" stop-opacity="1"/><stop offset="1" stop-color="rgb(211,211,211)" stop-opacity="1"/></linearGradient><linearGradient id="dFUmNGlolnBx" x1="400px" x2="1198.2000007152558px" y1="3554.0000100135803px" y2="3175.800008583069px" gradientUnits="userSpaceOnUse"><stop offset="0" stop-color="rgb(211,211,211)" stop-opacity="1"/><stop offset="1" stop-color="rgb(211,211,211)" stop-opacity="1"/></linearGradient><linearGradient id="gKwBGzarHrpG" x1="1198.2000007152558px" x2="1303.0000007152557px" y1="3097.800008583069px" y2="341.5px" gradientUnits="userSpaceOnUse"><stop offset="0" stop-color="rgb(211,211,211)" stop-opacity="1"/><stop offset="1" stop-color="rgb(29,122,218)" stop-opacity="1"/></linearGradient><linearGradient id="KOuLpbgfKyFO" x1="1198.2000007152558px" x2="1198.2000007152558px" y1="3097.800008583069px" y2="2591.600006437302px" gradientUnits="userSpaceOnUse"><stop offset="0" stop-color="rgb(211,211,211)" stop-opacity="1"/><stop offset="1" stop-color="rgb(211,211,211)" stop-opacity="1"/></linearGradient><linearGradient id="UGVJxQaUCwKR" x1="400px" x2="400px" y1="3682.000010728836px" y2="3047.8000078678133px" gradientUnits="userSpaceOnUse"><stop offset="0" stop-color="rgb(211,211,211)" stop-opacity="1"/><stop offset="1" stop-color="rgb(211,211,211)" stop-opacity="1"/></linearGradient><linearGradient id="kvIaNdSmdRGn" x1="400px" x2="1198.2000007152558px" y1="3682.000010728836px" y2="3047.8000078678133px" gradientUnits="userSpaceOnUse"><stop offset="0" stop-color="rgb(211,211,211)" stop-opacity="1"/><stop offset="1" stop-color="rgb(211,211,211)" stop-opacity="1"/></linearGradient><linearGradient id="xwJQBCooLqyM" x1="400px" x2="1198.2000007152558px" y1="2591.600006437302px" y2="3097.800008583069px" gradientUnits="userSpaceOnUse"><stop offset="0" stop-color="rgb(211,211,211)" stop-opacity="1"/><stop offset="1" stop-color="rgb(211,211,211)" stop-opacity="1"/></linearGradient><linearGradient id="PQJeQeQgKeBK" x1="400px" x2="1198.2000007152558px" y1="2513.600006437302px" y2="2263.400005722046px" gradientUnits="userSpaceOnUse"><stop offset="0" stop-color="rgb(211,211,211)" stop-opacity="1"/><stop offset="1" stop-color="rgb(211,211,211)" stop-opacity="1"/></linearGradient><linearGradient id="eRCPxRxFMivD" x1="400px" x2="400px" y1="3810.000011444092px" y2="2919.8000071525576px" gradientUnits="userSpaceOnUse"><stop offset="0" stop-color="rgb(211,211,211)" stop-opacity="1"/><stop offset="1" stop-color="rgb(211,211,211)" stop-opacity="1"/></linearGradient><linearGradient id="sftcSPSNwrRk" x1="400px" x2="1198.2000007152558px" y1="3810.000011444092px" y2="2919.8000071525576px" gradientUnits="userSpaceOnUse"><stop offset="0" stop-color="rgb(211,211,211)" stop-opacity="1"/><stop offset="1" stop-color="rgb(211,211,211)" stop-opacity="1"/></linearGradient><linearGradient id="zIugTxhFGtwI" x1="1198.2000007152558px" x2="1303.0000007152557px" y1="3225.8000092983248px" y2="341.5px" gradientUnits="userSpaceOnUse"><stop offset="0" stop-color="rgb(211,211,211)" stop-opacity="1"/><stop offset="1" stop-color="rgb(29,122,218)" stop-opacity="1"/></linearGradient><linearGradient id="xunFohevKcAz" x1="1198.2000007152558px" x2="1198.2000007152558px" y1="3225.8000092983248px" y2="2591.600006437302px" gradientUnits="userSpaceOnUse"><stop offset="0" stop-color="rgb(211,211,211)" stop-opacity="1"/><stop offset="1" stop-color="rgb(211,211,211)" stop-opacity="1"/></linearGradient><linearGradient id="PePgbhhHIHES" x1="400px" x2="400px" y1="3938.0000121593475px" y2="2919.8000071525576px" gradientUnits="userSpaceOnUse"><stop offset="0" stop-color="rgb(211,211,211)" stop-opacity="1"/><stop offset="1" stop-color="rgb(211,211,211)" stop-opacity="1"/></linearGradient><linearGradient id="CgXONrNxuuyq" x1="400px" x2="1198.2000007152558px" y1="3938.0000121593475px" y2="3303.8000092983248px" gradientUnits="userSpaceOnUse"><stop offset="0" stop-color="rgb(211,211,211)" stop-opacity="1"/><stop offset="1" stop-color="rgb(211,211,211)" stop-opacity="1"/></linearGradient><linearGradient id="zmDHcQtxoWfo" x1="400px" x2="400px" y1="2841.8000071525576px" y2="2591.600006437302px" gradientUnits="userSpaceOnUse"><stop offset="0" stop-color="rgb(211,211,211)" stop-opacity="1"/><stop offset="1" stop-color="rgb(211,211,211)" stop-opacity="1"/></linearGradient><linearGradient id="sdrvAzFBvTTG" x1="674px" x2="924.2000007152558px" y1="2880.8000071525576px" y2="2552.600006437302px" gradientUnits="userSpaceOnUse"><stop offset="0" stop-color="rgb(211,211,211)" stop-opacity="1"/><stop offset="1" stop-color="rgb(211,211,211)" stop-opacity="1"/></linearGradient><linearGradient id="LIGKRxbLcwQW" x1="1198.2000007152558px" x2="1198.2000007152558px" y1="2841.8000071525576px" y2="2591.600006437302px" gradientUnits="userSpaceOnUse"><stop offset="0" stop-color="rgb(211,211,211)" stop-opacity="1"/><stop offset="1" stop-color="rgb(211,211,211)" stop-opacity="1"/></linearGradient><linearGradient id="dNWBmZTJeOCa" x1="1198.2000007152558px" x2="1303.0000007152557px" y1="2841.8000071525576px" y2="341.5px" gradientUnits="userSpaceOnUse"><stop offset="0" stop-color="rgb(211,211,211)" stop-opacity="1"/><stop offset="1" stop-color="rgb(29,122,218)" stop-opacity="1"/></linearGradient><linearGradient id="CdaPtVAKzCaL" x1="400px" x2="400px" y1="2969.8000078678133px" y2="2263.400005722046px" gradientUnits="userSpaceOnUse"><stop offset="0" stop-color="rgb(211,211,211)" stop-opacity="1"/><stop offset="1" stop-color="rgb(211,211,211)" stop-opacity="1"/></linearGradient><linearGradient id="offdknUCMOGo" x1="400px" x2="1198.2000007152558px" y1="2969.8000078678133px" y2="2591.600006437302px" gradientUnits="userSpaceOnUse"><stop offset="0" stop-color="rgb(211,211,211)" stop-opacity="1"/><stop offset="1" stop-color="rgb(211,211,211)" stop-opacity="1"/></linearGradient><linearGradient id="ugCtFUeaxXnS" x1="400px" x2="1198.2000007152558px" y1="2263.400005722046px" y2="2513.600006437302px" gradientUnits="userSpaceOnUse"><stop offset="0" stop-color="rgb(211,211,211)" stop-opacity="1"/><stop offset="1" stop-color="rgb(211,211,211)" stop-opacity="1"/></linearGradient><linearGradient id="kzamPxQTnSWI" x1="1198.2000007152558px" x2="1303.0000007152557px" y1="2969.8000078678133px" y2="341.5px" gradientUnits="userSpaceOnUse"><stop offset="0" stop-color="rgb(211,211,211)" stop-opacity="1"/><stop offset="1" stop-color="rgb(29,122,218)" stop-opacity="1"/></linearGradient><linearGradient id="FSJIFqTrVQiX" x1="1198.2000007152558px" x2="1198.2000007152558px" y1="2969.8000078678133px" y2="2591.600006437302px" gradientUnits="userSpaceOnUse"><stop offset="0" stop-color="rgb(211,211,211)" stop-opacity="1"/><stop offset="1" stop-color="rgb(211,211,211)" stop-opacity="1"/></linearGradient><linearGradient id="vESgTxKxvVJa" x1="2132.0000014305115px" x2="1579.5000007152557px" y1="728.2000007152558px" y2="433.00000071525574px" gradientUnits="userSpaceOnUse"><stop offset="0" stop-color="rgb(211,211,211)" stop-opacity="1"/><stop offset="1" stop-color="rgb(29,122,218)" stop-opacity="1"/></linearGradient><linearGradient id="yfmQkGoCyvBE" x1="2680.0000014305115px" x2="4138.400002861023px" y1="728.2000007152558px" y2="656.0000014305115px" gradientUnits="userSpaceOnUse"><stop offset="0" stop-color="rgb(211,211,211)" stop-opacity="1"/><stop offset="1" stop-color="rgb(211,211,211)" stop-opacity="1"/></linearGradient><linearGradient id="ZLrinoWSyaGC" x1="2406.0000014305115px" x2="2406.0000014305115px" y1="1095.4000014305116px" y2="1343.1000021457673px" gradientUnits="userSpaceOnUse"><stop offset="0" stop-color="rgb(211,211,211)" stop-opacity="1"/><stop offset="1" stop-color="rgb(220,71,125)" stop-opacity="1"/></linearGradient><linearGradient id="EHXKtMwAdrUB" x1="2406.0000014305115px" x2="2406.0000014305115px" y1="1017.4000014305116px" y2="767.2000007152558px" gradientUnits="userSpaceOnUse"><stop offset="0" stop-color="rgb(211,211,211)" stop-opacity="1"/><stop offset="1" stop-color="rgb(211,211,211)" stop-opacity="1"/></linearGradient><linearGradient id="gXwKIZfGwSEl" x1="2406.0000014305115px" x2="2406.0000014305115px" y1="1343.1000021457673px" y2="767.2000007152558px" gradientUnits="userSpaceOnUse"><stop offset="0" stop-color="rgb(220,71,125)" stop-opacity="1"/><stop offset="1" stop-color="rgb(211,211,211)" stop-opacity="1"/></linearGradient><linearGradient id="FbgtGxtxPuJm" x1="2680.0000014305115px" x2="4138.400002861023px" y1="400px" y2="400px" gradientUnits="userSpaceOnUse"><stop offset="0" stop-color="rgb(211,211,211)" stop-opacity="1"/><stop offset="1" stop-color="rgb(211,211,211)" stop-opacity="1"/></linearGradient><linearGradient id="CrfMJpStpERn" x1="2406.0000014305115px" x2="1198.2000007152558px" y1="439px" y2="2841.8000071525576px" gradientUnits="userSpaceOnUse"><stop offset="0" stop-color="rgb(211,211,211)" stop-opacity="1"/><stop offset="1" stop-color="rgb(211,211,211)" stop-opacity="1"/></linearGradient><linearGradient id="HVBJliZlHVAs" x1="2406.0000014305115px" x2="1198.2000007152558px" y1="439px" y2="3225.8000092983248px" gradientUnits="userSpaceOnUse"><stop offset="0" stop-color="rgb(211,211,211)" stop-opacity="1"/><stop offset="1" stop-color="rgb(211,211,211)" stop-opacity="1"/></linearGradient><linearGradient id="BLzJQBQgCszQ" x1="2406.0000014305115px" x2="2406.0000014305115px" y1="439px" y2="689.2000007152558px" gradientUnits="userSpaceOnUse"><stop offset="0" stop-color="rgb(211,211,211)" stop-opacity="1"/><stop offset="1" stop-color="rgb(211,211,211)" stop-opacity="1"/></linearGradient><linearGradient id="GhpvaJyLaoBn" x1="3609.200002145767px" x2="4412.400002861023px" y1="1073.200002861023px" y2="439px" gradientUnits="userSpaceOnUse"><stop offset="0" stop-color="rgb(211,211,211)" stop-opacity="1"/><stop offset="1" stop-color="rgb(211,211,211)" stop-opacity="1"/></linearGradient><linearGradient id="TgEphJxnTWFx" x1="3609.200002145767px" x2="4412.400002861023px" y1="1201.2000035762787px" y2="439px" gradientUnits="userSpaceOnUse"><stop offset="0" stop-color="rgb(211,211,211)" stop-opacity="1"/><stop offset="1" stop-color="rgb(211,211,211)" stop-opacity="1"/></linearGradient><linearGradient id="QJhAWUXZUEJI" x1="3609.200002145767px" x2="4412.400002861023px" y1="1329.2000042915345px" y2="439px" gradientUnits="userSpaceOnUse"><stop offset="0" stop-color="rgb(211,211,211)" stop-opacity="1"/><stop offset="1" stop-color="rgb(211,211,211)" stop-opacity="1"/></linearGradient><linearGradient id="nRohwzSdimGT" x1="4138.400002861023px" x2="3885.700002145767px" y1="528.0000007152557px" y2="400px" gradientUnits="userSpaceOnUse"><stop offset="0" stop-color="rgb(211,211,211)" stop-opacity="1"/><stop offset="1" stop-color="rgb(220,71,125)" stop-opacity="1"/></linearGradient><linearGradient id="ZqFeBuzuoTLm" x1="3609.200002145767px" x2="4412.400002861023px" y1="945.2000021457673px" y2="567.0000007152557px" gradientUnits="userSpaceOnUse"><stop offset="0" stop-color="rgb(211,211,211)" stop-opacity="1"/><stop offset="1" stop-color="rgb(211,211,211)" stop-opacity="1"/></linearGradient><linearGradient id="uVVGEDsHAmsn" x1="3609.200002145767px" x2="4412.400002861023px" y1="1457.2000050067902px" y2="695.0000014305115px" gradientUnits="userSpaceOnUse"><stop offset="0" stop-color="rgb(211,211,211)" stop-opacity="1"/><stop offset="1" stop-color="rgb(211,211,211)" stop-opacity="1"/></linearGradient><linearGradient id="XHilCwkgTDuf" x1="576.5px" x2="2132.0000014305115px" y1="300px" y2="728.2000007152558px" gradientUnits="userSpaceOnUse"><stop offset="0" stop-color="rgb(255,193,7)" stop-opacity="1"/><stop offset="1" stop-color="rgb(211,211,211)" stop-opacity="1"/></linearGradient><linearGradient id="pXFBPyIZqwal" x1="576.5px" x2="2132.0000014305115px" y1="433.00000071525574px" y2="728.2000007152558px" gradientUnits="userSpaceOnUse"><stop offset="0" stop-color="rgb(255,193,7)" stop-opacity="1"/><stop offset="1" stop-color="rgb(211,211,211)" stop-opacity="1"/></linearGradient></defs><g transform="translate(56.2,10.100000000000001) scale(0.2,0.2)"><path fill="rgb(244,236,255)" stroke="rgb(255,255,255)" paint-order="fill stroke markers" d=" M 2384.2000014305113 -48.5 L 5039.400002861023 -48.5 L 5039.400002861023 -48.5 A 8 8 0 0 1 5047.400002861023 -40.5 L 5047.400002861023 4369.0000121593475 L 5047.400002861023 4369.0000121593475 A 8 8 0 0 1 5039.400002861023 4377.0000121593475 L -271 4377.0000121593475 L -271 4377.0000121593475 A 8 8 0 0 1 -279 4369.0000121593475 L -279 -40.5 L -279 -40.5 A 8 8 0 0 1 -271 -48.5 L 2384.2000014305113 -48.5 Z" fill-opacity="1" stroke-opacity="1" stroke-miterlimit="10" stroke-width="2"/><text fill="rgb(0,0,0)" stroke="none" font-family="Avenir, Helvetica, Arial, sans-serif" font-size="32px" font-style="normal" font-weight="bold" text-decoration="normal" x="2384.2000014305113" y="26.5" text-anchor="middle" dominant-baseline="text-after-edge" fill-opacity="1">.</text><path fill="rgb(255,255,255)" stroke="rgb(211,211,211)" paint-order="fill stroke markers" d=" M 799.1000003576279 1980.4000057220458 L 1623.7000007152558 1980.4000057220458 L 1623.7000007152558 1980.4000057220458 A 8 8 0 0 1 1631.7000007152558 1988.4000057220458 L 1631.7000007152558 4167.5000121593475 L 1631.7000007152558 4167.5000121593475 A 8 8 0 0 1 1623.7000007152558 4175.5000121593475 L -25.5 4175.5000121593475 L -25.5 4175.5000121593475 A 8 8 0 0 1 -33.5 4167.5000121593475 L -33.5 1988.4000057220458 L -33.5 1988.4000057220458 A 8 8 0 0 1 -25.5 1980.4000057220458 L 799.1000003576279 1980.4000057220458 Z" fill-opacity="1" stroke-opacity="1" stroke-miterlimit="10"/><text fill="rgb(0,0,0)" stroke="none" font-family="Avenir, Helvetica, Arial, sans-serif" font-size="32px" font-style="normal" font-weight="bold" text-decoration="normal" x="799.1000003576279" y="2055.4000057220455" text-anchor="middle" dominant-baseline="text-after-edge" fill-opacity="1">networking.tf</text><path fill="rgb(255,255,255)" stroke="rgb(211,211,211)" paint-order="fill stroke markers" d=" M 2406.0000014305115 156 L 2834.5000014305115 156 L 2834.5000014305115 156 A 8 8 0 0 1 2842.5000014305115 164 L 2842.5000014305115 1578.1000021457673 L 2842.5000014305115 1578.1000021457673 A 8 8 0 0 1 2834.5000014305115 1586.1000021457673 L 1977.5000014305115 1586.1000021457673 L 1977.5000014305115 1586.1000021457673 A 8 8 0 0 1 1969.5000014305115 1578.1000021457673 L 1969.5000014305115 164 L 1969.5000014305115 164 A 8 8 0 0 1 1977.5000014305115 156 L 2406.0000014305115 156 Z" fill-opacity="1" stroke-opacity="1" stroke-miterlimit="10"/><text fill="rgb(0,0,0)" stroke="none" font-family="Avenir, Helvetica, Arial, sans-serif" font-size="32px" font-style="normal" font-weight="bold" text-decoration="normal" x="2406.0000014305115" y="231" text-anchor="middle" dominant-baseline="text-after-edge" fill-opacity="1">eks.tf</text><path fill="rgb(255,255,255)" stroke="rgb(211,211,211)" paint-order="fill stroke markers" d=" M 4009.300002503395 153 L 4837.900002861023 153 L 4837.900002861023 153 A 8 8 0 0 1 4845.900002861023 161 L 4845.900002861023 1686.7000050067902 L 4845.900002861023 1686.7000050067902 A 8 8 0 0 1 4837.900002861023 1694.7000050067902 L 3180.700002145767 1694.7000050067902 L 3180.700002145767 1694.7000050067902 A 8 8 0 0 1 3172.700002145767 1686.7000050067902 L 3172.700002145767 161 L 3172.700002145767 161 A 8 8 0 0 1 3180.700002145767 153 L 4009.300002503395 153 Z" fill-opacity="1" stroke-opacity="1" stroke-miterlimit="10"/><text fill="rgb(0,0,0)" stroke="none" font-family="Avenir, Helvetica, Arial, sans-serif" font-size="32px" font-style="normal" font-weight="bold" text-decoration="normal" x="4009.300002503395" y="228" text-anchor="middle" dominant-baseline="text-after-edge" fill-opacity="1">iam.tf</text><path fill="rgb(255,255,255)" stroke="rgb(211,211,211)" paint-order="fill stroke markers" d=" M 300 157.5 L 669.5 157.5 L 669.5 157.5 A 8 8 0 0 1 677.5 165.5 L 677.5 567.5000007152557 L 677.5 567.5000007152557 A 8 8 0 0 1 669.5 575.5000007152557 L -69.5 575.5000007152557 L -69.5 575.5000007152557 A 8 8 0 0 1 -77.5 567.5000007152557 L -77.5 165.5 L -77.5 165.5 A 8 8 0 0 1 -69.5 157.5 L 300 157.5 Z" fill-opacity="1" stroke-opacity="1" stroke-miterlimit="10"/><text fill="rgb(0,0,0)" stroke="none" font-family="Avenir, Helvetica, Arial, sans-serif" font-size="32px" font-style="normal" font-weight="bold" text-decoration="normal" x="300" y="232.5" text-anchor="middle" dominant-baseline="text-after-edge" fill-opacity="1">outputs.tf</text><path fill="rgb(255,255,255)" stroke="rgb(211,211,211)" paint-order="fill stroke markers" d=" M 1303.0000007152557 157.5 L 1672.5000007152557 157.5 L 1672.5000007152557 157.5 A 8 8 0 0 1 1680.5000007152557 165.5 L 1680.5000007152557 567.5000007152557 L 1680.5000007152557 567.5000007152557 A 8 8 0 0 1 1672.5000007152557 575.5000007152557 L 933.5000007152557 575.5000007152557 L 933.5000007152557 575.5000007152557 A 8 8 0 0 1 925.5000007152557 567.5000007152557 L 925.5000007152557 165.5 L 925.5000007152557 165.5 A 8 8 0 0 1 933.5000007152557 157.5 L 1303.0000007152557 157.5 Z" fill-opacity="1" stroke-opacity="1" stroke-miterlimit="10"/><text fill="rgb(0,0,0)" stroke="none" font-family="Avenir, Helvetica, Arial, sans-serif" font-size="32px" font-style="normal" font-weight="bold" text-decoration="normal" x="1303.0000007152557" y="232.5" text-anchor="middle" dominant-baseline="text-after-edge" fill-opacity="1">variables.tf</text><path fill="rgb(255,255,255)" stroke="rgb(0,0,0)" paint-order="fill stroke markers" d=" M 400 2785.8000071525576 L 722 2785.8000071525576 L 722 2785.8000071525576 A 8 8 0 0 1 730 2793.8000071525576 L 730 3095.8000078678133 L 730 3095.8000078678133 A 8 8 0 0 1 722 3103.8000078678133 L 78 3103.8000078678133 L 78 3103.8000078678133 A 8 8 0 0 1 70 3095.8000078678133 L 70 2793.8000071525576 L 70 2793.8000071525576 A 8 8 0 0 1 78 2785.8000071525576 L 400 2785.8000071525576 Z" fill-opacity="1" stroke-opacity="1" stroke-miterlimit="10" stroke-width="5"/><rect fill="rgb(255,255,255)" stroke="none" x="245" y="2736.8000071525576" width="310" height="96" fill-opacity="1"/><text fill="rgb(0,0,0)" stroke="none" font-family="Avenir, Helvetica, Arial, sans-serif" font-size="32px" font-style="normal" font-weight="bold" text-decoration="normal" x="400" y="2800.8000071525576" text-anchor="middle" dominant-baseline="text-after-edge" fill-opacity="1">aws_route_table</text><path fill="rgb(255,255,255)" stroke="rgb(0,0,0)" paint-order="fill stroke markers" d=" M 1198.2000007152558 2785.8000071525576 L 1520.2000007152558 2785.8000071525576 L 1520.2000007152558 2785.8000071525576 A 8 8 0 0 1 1528.2000007152558 2793.8000071525576 L 1528.2000007152558 3351.8000092983248 L 1528.2000007152558 3351.8000092983248 A 8 8 0 0 1 1520.2000007152558 3359.8000092983248 L 876.2000007152558 3359.8000092983248 L 876.2000007152558 3359.8000092983248 A 8 8 0 0 1 868.2000007152558 3351.8000092983248 L 868.2000007152558 2793.8000071525576 L 868.2000007152558 2793.8000071525576 A 8 8 0 0 1 876.2000007152558 2785.8000071525576 L 1198.2000007152558 2785.8000071525576 Z" fill-opacity="1" stroke-opacity="1" stroke-miterlimit="10" stroke-width="5"/><rect fill="rgb(255,255,255)" stroke="none" x="1078.7000007152558" y="2736.8000071525576" width="239" height="96" fill-opacity="1"/><text fill="rgb(0,0,0)" stroke="none" font-family="Avenir, Helvetica, Arial, sans-serif" font-size="32px" font-style="normal" font-weight="bold" text-decoration="normal" x="1198.2000007152558" y="2800.8000071525576" text-anchor="middle" dominant-baseline="text-after-edge" fill-opacity="1">aws_subnet</text><path fill="rgb(255,255,255)" stroke="rgb(0,0,0)" paint-order="fill stroke markers" d=" M 400 2129.400005722046 L 722 2129.400005722046 L 722 2129.400005722046 A 8 8 0 0 1 730 2137.400005722046 L 730 2311.400005722046 L 730 2311.400005722046 A 8 8 0 0 1 722 2319.400005722046 L 78 2319.400005722046 L 78 2319.400005722046 A 8 8 0 0 1 70 2311.400005722046 L 70 2137.400005722046 L 70 2137.400005722046 A 8 8 0 0 1 78 2129.400005722046 L 400 2129.400005722046 Z" fill-opacity="1" stroke-opacity="1" stroke-miterlimit="10" stroke-width="5"/><rect fill="rgb(255,255,255)" stroke="none" x="200" y="2080.400005722046" width="400" height="96" fill-opacity="1"/><text fill="rgb(0,0,0)" stroke="none" font-family="Avenir, Helvetica, Arial, sans-serif" font-size="32px" font-style="normal" font-weight="bold" text-decoration="normal" x="400" y="2144.400005722046" text-anchor="middle" dominant-baseline="text-after-edge" fill-opacity="1">aws_internet_gateway</text><path fill="rgb(255,255,255)" stroke="rgb(0,0,0)" paint-order="fill stroke markers" d=" M 1198.2000007152558 2129.400005722046 L 1520.2000007152558 2129.400005722046 L 1520.2000007152558 2129.400005722046 A 8 8 0 0 1 1528.2000007152558 2137.400005722046 L 1528.2000007152558 2311.400005722046 L 1528.2000007152558 2311.400005722046 A 8 8 0 0 1 1520.2000007152558 2319.400005722046 L 876.2000007152558 2319.400005722046 L 876.2000007152558 2319.400005722046 A 8 8 0 0 1 868.2000007152558 2311.400005722046 L 868.2000007152558 2137.400005722046 L 868.2000007152558 2137.400005722046 A 8 8 0 0 1 876.2000007152558 2129.400005722046 L 1198.2000007152558 2129.400005722046 Z" fill-opacity="1" stroke-opacity="1" stroke-miterlimit="10" stroke-width="5"/><rect fill="rgb(255,255,255)" stroke="none" x="1106.2000007152558" y="2080.400005722046" width="184" height="96" fill-opacity="1"/><text fill="rgb(0,0,0)" stroke="none" font-family="Avenir, Helvetica, Arial, sans-serif" font-size="32px" font-style="normal" font-weight="bold" text-decoration="normal" x="1198.2000007152558" y="2144.400005722046" text-anchor="middle" dominant-baseline="text-after-edge" fill-opacity="1">aws_eip</text><path fill="rgb(255,255,255)" stroke="rgb(0,0,0)" paint-order="fill stroke markers" d=" M 400 3498.0000100135803 L 722 3498.0000100135803 L 722 3498.0000100135803 A 8 8 0 0 1 730 3506.0000100135803 L 730 4064.0000121593475 L 730 4064.0000121593475 A 8 8 0 0 1 722 4072.0000121593475 L 78 4072.0000121593475 L 78 4072.0000121593475 A 8 8 0 0 1 70 4064.0000121593475 L 70 3506.0000100135803 L 70 3506.0000100135803 A 8 8 0 0 1 78 3498.0000100135803 L 400 3498.0000100135803 Z" fill-opacity="1" stroke-opacity="1" stroke-miterlimit="10" stroke-width="5"/><rect fill="rgb(255,255,255)" stroke="none" x="154.5" y="3449.0000100135803" width="491" height="96" fill-opacity="1"/><text fill="rgb(0,0,0)" stroke="none" font-family="Avenir, Helvetica, Arial, sans-serif" font-size="32px" font-style="normal" font-weight="bold" text-decoration="normal" x="400" y="3513.0000100135803" text-anchor="middle" dominant-baseline="text-after-edge" fill-opacity="1">aws_route_table_association</text><path fill="rgb(255,255,255)" stroke="rgb(0,0,0)" paint-order="fill stroke markers" d=" M 400 2457.600006437302 L 722 2457.600006437302 L 722 2457.600006437302 A 8 8 0 0 1 730 2465.600006437302 L 730 2639.600006437302 L 730 2639.600006437302 A 8 8 0 0 1 722 2647.600006437302 L 78 2647.600006437302 L 78 2647.600006437302 A 8 8 0 0 1 70 2639.600006437302 L 70 2465.600006437302 L 70 2465.600006437302 A 8 8 0 0 1 78 2457.600006437302 L 400 2457.600006437302 Z" fill-opacity="1" stroke-opacity="1" stroke-miterlimit="10" stroke-width="5"/><rect fill="rgb(255,255,255)" stroke="none" x="236" y="2408.600006437302" width="328" height="96" fill-opacity="1"/><text fill="rgb(0,0,0)" stroke="none" font-family="Avenir, Helvetica, Arial, sans-serif" font-size="32px" font-style="normal" font-weight="bold" text-decoration="normal" x="400" y="2472.600006437302" text-anchor="middle" dominant-baseline="text-after-edge" fill-opacity="1">aws_nat_gateway</text><path fill="rgb(255,255,255)" stroke="rgb(0,0,0)" paint-order="fill stroke markers" d=" M 1198.2000007152558 2457.600006437302 L 1520.2000007152558 2457.600006437302 L 1520.2000007152558 2457.600006437302 A 8 8 0 0 1 1528.2000007152558 2465.600006437302 L 1528.2000007152558 2639.600006437302 L 1528.2000007152558 2639.600006437302 A 8 8 0 0 1 1520.2000007152558 2647.600006437302 L 876.2000007152558 2647.600006437302 L 876.2000007152558 2647.600006437302 A 8 8 0 0 1 868.2000007152558 2639.600006437302 L 868.2000007152558 2465.600006437302 L 868.2000007152558 2465.600006437302 A 8 8 0 0 1 876.2000007152558 2457.600006437302 L 1198.2000007152558 2457.600006437302 Z" fill-opacity="1" stroke-opacity="1" stroke-miterlimit="10" stroke-width="5"/><rect fill="rgb(255,255,255)" stroke="none" x="1103.7000007152558" y="2408.600006437302" width="189" height="96" fill-opacity="1"/><text fill="rgb(0,0,0)" stroke="none" font-family="Avenir, Helvetica, Arial, sans-serif" font-size="32px" font-style="normal" font-weight="bold" text-decoration="normal" x="1198.2000007152558" y="2472.600006437302" text-anchor="middle" dominant-baseline="text-after-edge" fill-opacity="1">aws_vpc</text><path fill="rgb(255,255,255)" stroke="rgb(0,0,0)" paint-order="fill stroke markers" d=" M 2406.0000014305115 1286.6000021457673 L 2731.0000014305115 1286.6000021457673 L 2731.0000014305115 1286.6000021457673 A 8 8 0 0 1 2739.0000014305115 1294.6000021457673 L 2739.0000014305115 1474.6000021457673 L 2739.0000014305115 1474.6000021457673 A 8 8 0 0 1 2731.0000014305115 1482.6000021457673 L 2081.0000014305115 1482.6000021457673 L 2081.0000014305115 1482.6000021457673 A 8 8 0 0 1 2073.0000014305115 1474.6000021457673 L 2073.0000014305115 1294.6000021457673 L 2073.0000014305115 1294.6000021457673 A 8 8 0 0 1 2081.0000014305115 1286.6000021457673 L 2406.0000014305115 1286.6000021457673 Z" fill-opacity="1" stroke-opacity="1" stroke-miterlimit="10" stroke-width="5"/><rect fill="rgb(255,255,255)" stroke="none" x="2274.0000014305115" y="1237.6000021457673" width="264" height="96" fill-opacity="1"/><text fill="rgb(0,0,0)" stroke="none" font-family="Avenir, Helvetica, Arial, sans-serif" font-size="32px" font-style="normal" font-weight="bold" text-decoration="normal" x="2406.0000014305115" y="1301.6000021457673" text-anchor="middle" dominant-baseline="text-after-edge" fill-opacity="1">tls_certificate</text><path fill="rgb(255,255,255)" stroke="rgb(0,0,0)" paint-order="fill stroke markers" d=" M 2406.0000014305115 305 L 2728.0000014305115 305 L 2728.0000014305115 305 A 8 8 0 0 1 2736.0000014305115 313 L 2736.0000014305115 487 L 2736.0000014305115 487 A 8 8 0 0 1 2728.0000014305115 495 L 2084.0000014305115 495 L 2084.0000014305115 495 A 8 8 0 0 1 2076.0000014305115 487 L 2076.0000014305115 313 L 2076.0000014305115 313 A 8 8 0 0 1 2084.0000014305115 305 L 2406.0000014305115 305 Z" fill-opacity="1" stroke-opacity="1" stroke-miterlimit="10" stroke-width="5"/><rect fill="rgb(255,255,255)" stroke="none" x="2213.5000014305115" y="256" width="385" height="96" fill-opacity="1"/><text fill="rgb(0,0,0)" stroke="none" font-family="Avenir, Helvetica, Arial, sans-serif" font-size="32px" font-style="normal" font-weight="bold" text-decoration="normal" x="2406.0000014305115" y="320" text-anchor="middle" dominant-baseline="text-after-edge" fill-opacity="1">aws_eks_node_group</text><path fill="rgb(255,255,255)" stroke="rgb(0,0,0)" paint-order="fill stroke markers" d=" M 2406.0000014305115 633.2000007152558 L 2728.0000014305115 633.2000007152558 L 2728.0000014305115 633.2000007152558 A 8 8 0 0 1 2736.0000014305115 641.2000007152558 L 2736.0000014305115 815.2000007152558 L 2736.0000014305115 815.2000007152558 A 8 8 0 0 1 2728.0000014305115 823.2000007152558 L 2084.0000014305115 823.2000007152558 L 2084.0000014305115 823.2000007152558 A 8 8 0 0 1 2076.0000014305115 815.2000007152558 L 2076.0000014305115 641.2000007152558 L 2076.0000014305115 641.2000007152558 A 8 8 0 0 1 2084.0000014305115 633.2000007152558 L 2406.0000014305115 633.2000007152558 Z" fill-opacity="1" stroke-opacity="1" stroke-miterlimit="10" stroke-width="5"/><rect fill="rgb(255,255,255)" stroke="none" x="2255.0000014305115" y="584.2000007152558" width="302" height="96" fill-opacity="1"/><text fill="rgb(0,0,0)" stroke="none" font-family="Avenir, Helvetica, Arial, sans-serif" font-size="32px" font-style="normal" font-weight="bold" text-decoration="normal" x="2406.0000014305115" y="648.2000007152558" text-anchor="middle" dominant-baseline="text-after-edge" fill-opacity="1">aws_eks_cluster</text><path fill="rgb(255,255,255)" stroke="rgb(0,0,0)" paint-order="fill stroke markers" d=" M 2406.0000014305115 961.4000014305116 L 2728.0000014305115 961.4000014305116 L 2728.0000014305115 961.4000014305116 A 8 8 0 0 1 2736.0000014305115 969.4000014305116 L 2736.0000014305115 1143.4000014305116 L 2736.0000014305115 1143.4000014305116 A 8 8 0 0 1 2728.0000014305115 1151.4000014305116 L 2084.0000014305115 1151.4000014305116 L 2084.0000014305115 1151.4000014305116 A 8 8 0 0 1 2076.0000014305115 1143.4000014305116 L 2076.0000014305115 969.4000014305116 L 2076.0000014305115 969.4000014305116 A 8 8 0 0 1 2084.0000014305115 961.4000014305116 L 2406.0000014305115 961.4000014305116 Z" fill-opacity="1" stroke-opacity="1" stroke-miterlimit="10" stroke-width="5"/><rect fill="rgb(255,255,255)" stroke="none" x="2112.0000014305115" y="912.4000014305116" width="588" height="96" fill-opacity="1"/><text fill="rgb(0,0,0)" stroke="none" font-family="Avenir, Helvetica, Arial, sans-serif" font-size="32px" font-style="normal" font-weight="bold" text-decoration="normal" x="2406.0000014305115" y="976.4000014305116" text-anchor="middle" dominant-baseline="text-after-edge" fill-opacity="1">aws_iam_openid_connect_provider</text><path fill="rgb(255,255,255)" stroke="rgb(0,0,0)" paint-order="fill stroke markers" d=" M 3609.200002145767 889.2000021457673 L 3931.200002145767 889.2000021457673 L 3931.200002145767 889.2000021457673 A 8 8 0 0 1 3939.200002145767 897.2000021457673 L 3939.200002145767 1583.2000050067902 L 3939.200002145767 1583.2000050067902 A 8 8 0 0 1 3931.200002145767 1591.2000050067902 L 3287.200002145767 1591.2000050067902 L 3287.200002145767 1591.2000050067902 A 8 8 0 0 1 3279.200002145767 1583.2000050067902 L 3279.200002145767 897.2000021457673 L 3279.200002145767 897.2000021457673 A 8 8 0 0 1 3287.200002145767 889.2000021457673 L 3609.200002145767 889.2000021457673 Z" fill-opacity="1" stroke-opacity="1" stroke-miterlimit="10" stroke-width="5"/><rect fill="rgb(255,255,255)" stroke="none" x="3331.700002145767" y="840.2000021457673" width="555" height="96" fill-opacity="1"/><text fill="rgb(0,0,0)" stroke="none" font-family="Avenir, Helvetica, Arial, sans-serif" font-size="32px" font-style="normal" font-weight="bold" text-decoration="normal" x="3609.200002145767" y="904.2000021457673" text-anchor="middle" dominant-baseline="text-after-edge" fill-opacity="1">aws_iam_role_policy_attachment</text><path fill="rgb(255,255,255)" stroke="rgb(0,0,0)" paint-order="fill stroke markers" d=" M 4412.400002861023 305 L 4734.400002861023 305 L 4734.400002861023 305 A 8 8 0 0 1 4742.400002861023 313 L 4742.400002861023 743.0000014305115 L 4742.400002861023 743.0000014305115 A 8 8 0 0 1 4734.400002861023 751.0000014305115 L 4090.4000028610226 751.0000014305115 L 4090.4000028610226 751.0000014305115 A 8 8 0 0 1 4082.4000028610226 743.0000014305115 L 4082.4000028610226 313 L 4082.4000028610226 313 A 8 8 0 0 1 4090.4000028610226 305 L 4412.400002861023 305 Z" fill-opacity="1" stroke-opacity="1" stroke-miterlimit="10" stroke-width="5"/><rect fill="rgb(255,255,255)" stroke="none" x="4280.400002861023" y="256" width="264" height="96" fill-opacity="1"/><text fill="rgb(0,0,0)" stroke="none" font-family="Avenir, Helvetica, Arial, sans-serif" font-size="32px" font-style="normal" font-weight="bold" text-decoration="normal" x="4412.400002861023" y="320" text-anchor="middle" dominant-baseline="text-after-edge" fill-opacity="1">aws_iam_role</text><path fill="rgb(255,255,255)" stroke="rgb(0,0,0)" paint-order="fill stroke markers" d=" M 3609.200002145767 302 L 3934.200002145767 302 L 3934.200002145767 302 A 8 8 0 0 1 3942.200002145767 310 L 3942.200002145767 490 L 3942.200002145767 490 A 8 8 0 0 1 3934.200002145767 498 L 3284.200002145767 498 L 3284.200002145767 498 A 8 8 0 0 1 3276.200002145767 490 L 3276.200002145767 310 L 3276.200002145767 310 A 8 8 0 0 1 3284.200002145767 302 L 3609.200002145767 302 Z" fill-opacity="1" stroke-opacity="1" stroke-miterlimit="10" stroke-width="5"/><rect fill="rgb(255,255,255)" stroke="none" x="3378.700002145767" y="253" width="461" height="96" fill-opacity="1"/><text fill="rgb(0,0,0)" stroke="none" font-family="Avenir, Helvetica, Arial, sans-serif" font-size="32px" font-style="normal" font-weight="bold" text-decoration="normal" x="3609.200002145767" y="317" text-anchor="middle" dominant-baseline="text-after-edge" fill-opacity="1">aws_iam_policy_document</text><path fill="none" stroke="url(#ztVFcfLXVoxZ)" paint-order="fill stroke markers" d=" M 400 3554.0000100135803 L 400 3300.900008940697 L 400 3300.900008940697 L 400 3047.8000078678133" stroke-linejoin="round" stroke-miterlimit="10" stroke-width="10"/><path fill="none" stroke="url(#dFUmNGlolnBx)" paint-order="fill stroke markers" d=" M 400 3554.0000100135803 L 400 3364.9000092983247 L 1198.2000007152558 3364.9000092983247 L 1198.2000007152558 3175.800008583069" stroke-linejoin="round" stroke-miterlimit="10" stroke-width="10"/><path fill="none" stroke="url(#gKwBGzarHrpG)" paint-order="fill stroke markers" d=" M 1198.2000007152558 3097.800008583069 L 1198.2000007152558 1719.6500042915345 L 1303.0000007152557 1719.6500042915345 L 1303.0000007152557 341.5" stroke-linejoin="round" stroke-miterlimit="10" stroke-width="10"/><path fill="none" stroke="url(#KOuLpbgfKyFO)" paint-order="fill stroke markers" d=" M 1198.2000007152558 3097.800008583069 L 1198.2000007152558 2844.7000075101855 L 1198.2000007152558 2844.7000075101855 L 1198.2000007152558 2591.600006437302" stroke-linejoin="round" stroke-miterlimit="10" stroke-width="10"/><path fill="none" stroke="url(#UGVJxQaUCwKR)" paint-order="fill stroke markers" d=" M 400 3682.000010728836 L 400 3364.9000092983247 L 400 3364.9000092983247 L 400 3047.8000078678133" stroke-linejoin="round" stroke-miterlimit="10" stroke-width="10"/><path fill="none" stroke="url(#kvIaNdSmdRGn)" paint-order="fill stroke markers" d=" M 400 3682.000010728836 L 400 3364.9000092983247 L 1198.2000007152558 3364.9000092983247 L 1198.2000007152558 3047.8000078678133" stroke-linejoin="round" stroke-miterlimit="10" stroke-width="10"/><path fill="none" stroke="url(#xwJQBCooLqyM)" paint-order="fill stroke markers" d=" M 400 2591.600006437302 L 400 2844.7000075101855 L 1198.2000007152558 2844.7000075101855 L 1198.2000007152558 3097.800008583069" stroke-linejoin="round" stroke-miterlimit="10" stroke-width="10"/><path fill="none" stroke="url(#PQJeQeQgKeBK)" paint-order="fill stroke markers" d=" M 400 2513.600006437302 L 400 2388.5000060796738 L 1198.2000007152558 2388.5000060796738 L 1198.2000007152558 2263.400005722046" stroke-linejoin="round" stroke-miterlimit="10" stroke-width="10"/><path fill="none" stroke="url(#eRCPxRxFMivD)" paint-order="fill stroke markers" d=" M 400 3810.000011444092 L 400 3364.9000092983247 L 400 3364.9000092983247 L 400 2919.8000071525576" stroke-linejoin="round" stroke-miterlimit="10" stroke-width="10"/><path fill="none" stroke="url(#sftcSPSNwrRk)" paint-order="fill stroke markers" d=" M 400 3810.000011444092 L 400 3364.9000092983247 L 1198.2000007152558 3364.9000092983247 L 1198.2000007152558 2919.8000071525576" stroke-linejoin="round" stroke-miterlimit="10" stroke-width="10"/><path fill="none" stroke="url(#zIugTxhFGtwI)" paint-order="fill stroke markers" d=" M 1198.2000007152558 3225.8000092983248 L 1198.2000007152558 1783.6500046491624 L 1303.0000007152557 1783.6500046491624 L 1303.0000007152557 341.5" stroke-linejoin="round" stroke-miterlimit="10" stroke-width="10"/><path fill="none" stroke="url(#xunFohevKcAz)" paint-order="fill stroke markers" d=" M 1198.2000007152558 3225.8000092983248 L 1198.2000007152558 2908.7000078678134 L 1198.2000007152558 2908.7000078678134 L 1198.2000007152558 2591.600006437302" stroke-linejoin="round" stroke-miterlimit="10" stroke-width="10"/><path fill="none" stroke="url(#PePgbhhHIHES)" paint-order="fill stroke markers" d=" M 400 3938.0000121593475 L 400 3428.9000096559525 L 400 3428.9000096559525 L 400 2919.8000071525576" stroke-linejoin="round" stroke-miterlimit="10" stroke-width="10"/><path fill="none" stroke="url(#CgXONrNxuuyq)" paint-order="fill stroke markers" d=" M 400 3938.0000121593475 L 400 3620.900010728836 L 1198.2000007152558 3620.900010728836 L 1198.2000007152558 3303.8000092983248" stroke-linejoin="round" stroke-miterlimit="10" stroke-width="10"/><path fill="none" stroke="url(#zmDHcQtxoWfo)" paint-order="fill stroke markers" d=" M 400 2841.8000071525576 L 400 2716.70000679493 L 400 2716.70000679493 L 400 2591.600006437302" stroke-linejoin="round" stroke-miterlimit="10" stroke-width="10"/><path fill="none" stroke="url(#sdrvAzFBvTTG)" paint-order="fill stroke markers" d=" M 674 2880.8000071525576 L 799.1000003576279 2880.8000071525576 L 799.1000003576279 2552.600006437302 L 924.2000007152558 2552.600006437302" stroke-linejoin="round" stroke-miterlimit="10" stroke-width="10"/><path fill="none" stroke="url(#LIGKRxbLcwQW)" paint-order="fill stroke markers" d=" M 1198.2000007152558 2841.8000071525576 L 1198.2000007152558 2716.70000679493 L 1198.2000007152558 2716.70000679493 L 1198.2000007152558 2591.600006437302" stroke-linejoin="round" stroke-miterlimit="10" stroke-width="10"/><path fill="none" stroke="url(#dNWBmZTJeOCa)" paint-order="fill stroke markers" d=" M 1198.2000007152558 2841.8000071525576 L 1198.2000007152558 1591.6500035762788 L 1303.0000007152557 1591.6500035762788 L 1303.0000007152557 341.5" stroke-linejoin="round" stroke-miterlimit="10" stroke-width="10"/><path fill="none" stroke="url(#CdaPtVAKzCaL)" paint-order="fill stroke markers" d=" M 400 2969.8000078678133 L 400 2616.60000679493 L 400 2616.60000679493 L 400 2263.400005722046" stroke-linejoin="round" stroke-miterlimit="10" stroke-width="10"/><path fill="none" stroke="url(#offdknUCMOGo)" paint-order="fill stroke markers" d=" M 400 2969.8000078678133 L 400 2780.7000071525576 L 1198.2000007152558 2780.7000071525576 L 1198.2000007152558 2591.600006437302" stroke-linejoin="round" stroke-miterlimit="10" stroke-width="10"/><path fill="none" stroke="url(#ugCtFUeaxXnS)" paint-order="fill stroke markers" d=" M 400 2263.400005722046 L 400 2388.5000060796738 L 1198.2000007152558 2388.5000060796738 L 1198.2000007152558 2513.600006437302" stroke-linejoin="round" stroke-miterlimit="10" stroke-width="10"/><path fill="none" stroke="url(#kzamPxQTnSWI)" paint-order="fill stroke markers" d=" M 1198.2000007152558 2969.8000078678133 L 1198.2000007152558 1655.6500039339066 L 1303.0000007152557 1655.6500039339066 L 1303.0000007152557 341.5" stroke-linejoin="round" stroke-miterlimit="10" stroke-width="10"/><path fill="none" stroke="url(#FSJIFqTrVQiX)" paint-order="fill stroke markers" d=" M 1198.2000007152558 2969.8000078678133 L 1198.2000007152558 2780.7000071525576 L 1198.2000007152558 2780.7000071525576 L 1198.2000007152558 2591.600006437302" stroke-linejoin="round" stroke-miterlimit="10" stroke-width="10"/><path fill="none" stroke="url(#vESgTxKxvVJa)" paint-order="fill stroke markers" d=" M 2132.0000014305115 728.2000007152558 L 1855.7500010728836 728.2000007152558 L 1855.7500010728836 433.00000071525574 L 1579.5000007152557 433.00000071525574" stroke-linejoin="round" stroke-miterlimit="10" stroke-width="10"/><path fill="none" stroke="url(#yfmQkGoCyvBE)" paint-order="fill stroke markers" d=" M 2680.0000014305115 728.2000007152558 L 3409.200002145767 728.2000007152558 L 3409.200002145767 656.0000014305115 L 4138.400002861023 656.0000014305115" stroke-linejoin="round" stroke-miterlimit="10" stroke-width="10"/><path fill="none" stroke="url(#ZLrinoWSyaGC)" paint-order="fill stroke markers" d=" M 2406.0000014305115 1095.4000014305116 L 2406.0000014305115 1219.2500017881393 L 2406.0000014305115 1219.2500017881393 L 2406.0000014305115 1343.1000021457673" stroke-linejoin="round" stroke-miterlimit="10" stroke-width="10"/><path fill="none" stroke="url(#EHXKtMwAdrUB)" paint-order="fill stroke markers" d=" M 2406.0000014305115 1017.4000014305116 L 2406.0000014305115 892.3000010728837 L 2406.0000014305115 892.3000010728837 L 2406.0000014305115 767.2000007152558" stroke-linejoin="round" stroke-miterlimit="10" stroke-width="10"/><path fill="none" stroke="url(#gXwKIZfGwSEl)" paint-order="fill stroke markers" d=" M 2406.0000014305115 1343.1000021457673 L 2406.0000014305115 1055.1500014305116 L 2406.0000014305115 1055.1500014305116 L 2406.0000014305115 767.2000007152558" stroke-linejoin="round" stroke-miterlimit="10" stroke-width="10"/><path fill="none" stroke="url(#FbgtGxtxPuJm)" paint-order="fill stroke markers" d=" M 2680.0000014305115 400 L 3409.200002145767 400 L 3409.200002145767 400 L 4138.400002861023 400" stroke-linejoin="round" stroke-miterlimit="10" stroke-width="10"/><path fill="none" stroke="url(#CrfMJpStpERn)" paint-order="fill stroke markers" d=" M 2406.0000014305115 439 L 2406.0000014305115 1640.4000035762788 L 1198.2000007152558 1640.4000035762788 L 1198.2000007152558 2841.8000071525576" stroke-linejoin="round" stroke-miterlimit="10" stroke-width="10"/><path fill="none" stroke="url(#HVBJliZlHVAs)" paint-order="fill stroke markers" d=" M 2406.0000014305115 439 L 2406.0000014305115 1832.4000046491624 L 1198.2000007152558 1832.4000046491624 L 1198.2000007152558 3225.8000092983248" stroke-linejoin="round" stroke-miterlimit="10" stroke-width="10"/><path fill="none" stroke="url(#BLzJQBQgCszQ)" paint-order="fill stroke markers" d=" M 2406.0000014305115 439 L 2406.0000014305115 564.1000003576279 L 2406.0000014305115 564.1000003576279 L 2406.0000014305115 689.2000007152558" stroke-linejoin="round" stroke-miterlimit="10" stroke-width="10"/><path fill="none" stroke="url(#GhpvaJyLaoBn)" paint-order="fill stroke markers" d=" M 3609.200002145767 1073.200002861023 L 3609.200002145767 756.1000014305115 L 4412.400002861023 756.1000014305115 L 4412.400002861023 439" stroke-linejoin="round" stroke-miterlimit="10" stroke-width="10"/><path fill="none" stroke="url(#TgEphJxnTWFx)" paint-order="fill stroke markers" d=" M 3609.200002145767 1201.2000035762787 L 3609.200002145767 820.1000017881394 L 4412.400002861023 820.1000017881394 L 4412.400002861023 439" stroke-linejoin="round" stroke-miterlimit="10" stroke-width="10"/><path fill="none" stroke="url(#QJhAWUXZUEJI)" paint-order="fill stroke markers" d=" M 3609.200002145767 1329.2000042915345 L 3609.200002145767 884.1000021457672 L 4412.400002861023 884.1000021457672 L 4412.400002861023 439" stroke-linejoin="round" stroke-miterlimit="10" stroke-width="10"/><path fill="none" stroke="url(#nRohwzSdimGT)" paint-order="fill stroke markers" d=" M 4138.400002861023 528.0000007152557 L 4012.0500025033944 528.0000007152557 L 4012.0500025033944 400 L 3885.700002145767 400" stroke-linejoin="round" stroke-miterlimit="10" stroke-width="10"/><path fill="none" stroke="url(#ZqFeBuzuoTLm)" paint-order="fill stroke markers" d=" M 3609.200002145767 945.2000021457673 L 3609.200002145767 756.1000014305115 L 4412.400002861023 756.1000014305115 L 4412.400002861023 567.0000007152557" stroke-linejoin="round" stroke-miterlimit="10" stroke-width="10"/><path fill="none" stroke="url(#uVVGEDsHAmsn)" paint-order="fill stroke markers" d=" M 3609.200002145767 1457.2000050067902 L 3609.200002145767 1076.1000032186507 L 4412.400002861023 1076.1000032186507 L 4412.400002861023 695.0000014305115" stroke-linejoin="round" stroke-miterlimit="10" stroke-width="10"/><path fill="none" stroke="url(#XHilCwkgTDuf)" paint-order="fill stroke markers" d=" M 576.5 300 L 1354.2500007152557 300 L 1354.2500007152557 728.2000007152558 L 2132.0000014305115 728.2000007152558" stroke-linejoin="round" stroke-miterlimit="10" stroke-width="10"/><path fill="none" stroke="url(#pXFBPyIZqwal)" paint-order="fill stroke markers" d=" M 576.5 433.00000071525574 L 1354.2500007152557 433.00000071525574 L 1354.2500007152557 728.2000007152558 L 2132.0000014305115 728.2000007152558" stroke-linejoin="round" stroke-miterlimit="10" stroke-width="10"/><path fill="rgb(40,167,69)" stroke="url(#pXFBPyIZqwal)" paint-order="stroke fill markers" d=" M 400 2841.8000071525576 L 666 2841.8000071525576 L 666 2841.8000071525576 A 8 8 0 0 1 674 2849.8000071525576 L 674 2911.8000071525576 L 674 2911.8000071525576 A 8 8 0 0 1 666 2919.8000071525576 L 134 2919.8000071525576 L 134 2919.8000071525576 A 8 8 0 0 1 126 2911.8000071525576 L 126 2849.8000071525576 L 126 2849.8000071525576 A 8 8 0 0 1 134 2841.8000071525576 L 400 2841.8000071525576 Z" fill-opacity="1"/><text fill="rgb(255,255,255)" stroke="none" font-family="Avenir, Helvetica, Arial, sans-serif" font-size="32px" font-style="normal" font-weight="bold" text-decoration="normal" x="400" y="2896.8000071525576" text-anchor="middle" dominant-baseline="text-after-edge" fill-opacity="1">private</text><path fill="rgb(40,167,69)" stroke="none" paint-order="stroke fill markers" d=" M 1198.2000007152558 2841.8000071525576 L 1464.2000007152558 2841.8000071525576 L 1464.2000007152558 2841.8000071525576 A 8 8 0 0 1 1472.2000007152558 2849.8000071525576 L 1472.2000007152558 2911.8000071525576 L 1472.2000007152558 2911.8000071525576 A 8 8 0 0 1 1464.2000007152558 2919.8000071525576 L 932.2000007152558 2919.8000071525576 L 932.2000007152558 2919.8000071525576 A 8 8 0 0 1 924.2000007152558 2911.8000071525576 L 924.2000007152558 2849.8000071525576 L 924.2000007152558 2849.8000071525576 A 8 8 0 0 1 932.2000007152558 2841.8000071525576 L 1198.2000007152558 2841.8000071525576 Z" fill-opacity="1"/><text fill="rgb(255,255,255)" stroke="none" font-family="Avenir, Helvetica, Arial, sans-serif" font-size="32px" font-style="normal" font-weight="bold" text-decoration="normal" x="1198.2000007152558" y="2896.8000071525576" text-anchor="middle" dominant-baseline="text-after-edge" fill-opacity="1">private_a</text><path fill="rgb(40,167,69)" stroke="none" paint-order="stroke fill markers" d=" M 400 2969.8000078678133 L 666 2969.8000078678133 L 666 2969.8000078678133 A 8 8 0 0 1 674 2977.8000078678133 L 674 3039.8000078678133 L 674 3039.8000078678133 A 8 8 0 0 1 666 3047.8000078678133 L 134 3047.8000078678133 L 134 3047.8000078678133 A 8 8 0 0 1 126 3039.8000078678133 L 126 2977.8000078678133 L 126 2977.8000078678133 A 8 8 0 0 1 134 2969.8000078678133 L 400 2969.8000078678133 Z" fill-opacity="1"/><text fill="rgb(255,255,255)" stroke="none" font-family="Avenir, Helvetica, Arial, sans-serif" font-size="32px" font-style="normal" font-weight="bold" text-decoration="normal" x="400" y="3024.8000078678133" text-anchor="middle" dominant-baseline="text-after-edge" fill-opacity="1">public</text><path fill="rgb(40,167,69)" stroke="none" paint-order="stroke fill markers" d=" M 400 2185.400005722046 L 666 2185.400005722046 L 666 2185.400005722046 A 8 8 0 0 1 674 2193.400005722046 L 674 2255.400005722046 L 674 2255.400005722046 A 8 8 0 0 1 666 2263.400005722046 L 134 2263.400005722046 L 134 2263.400005722046 A 8 8 0 0 1 126 2255.400005722046 L 126 2193.400005722046 L 126 2193.400005722046 A 8 8 0 0 1 134 2185.400005722046 L 400 2185.400005722046 Z" fill-opacity="1"/><text fill="rgb(255,255,255)" stroke="none" font-family="Avenir, Helvetica, Arial, sans-serif" font-size="32px" font-style="normal" font-weight="bold" text-decoration="normal" x="400" y="2240.400005722046" text-anchor="middle" dominant-baseline="text-after-edge" fill-opacity="1">igw</text><path fill="rgb(40,167,69)" stroke="none" paint-order="stroke fill markers" d=" M 1198.2000007152558 2185.400005722046 L 1464.2000007152558 2185.400005722046 L 1464.2000007152558 2185.400005722046 A 8 8 0 0 1 1472.2000007152558 2193.400005722046 L 1472.2000007152558 2255.400005722046 L 1472.2000007152558 2255.400005722046 A 8 8 0 0 1 1464.2000007152558 2263.400005722046 L 932.2000007152558 2263.400005722046 L 932.2000007152558 2263.400005722046 A 8 8 0 0 1 924.2000007152558 2255.400005722046 L 924.2000007152558 2193.400005722046 L 924.2000007152558 2193.400005722046 A 8 8 0 0 1 932.2000007152558 2185.400005722046 L 1198.2000007152558 2185.400005722046 Z" fill-opacity="1"/><text fill="rgb(255,255,255)" stroke="none" font-family="Avenir, Helvetica, Arial, sans-serif" font-size="32px" font-style="normal" font-weight="bold" text-decoration="normal" x="1198.2000007152558" y="2240.400005722046" text-anchor="middle" dominant-baseline="text-after-edge" fill-opacity="1">nat</text><path fill="rgb(40,167,69)" stroke="none" paint-order="stroke fill markers" d=" M 1198.2000007152558 2969.8000078678133 L 1464.2000007152558 2969.8000078678133 L 1464.2000007152558 2969.8000078678133 A 8 8 0 0 1 1472.2000007152558 2977.8000078678133 L 1472.2000007152558 3039.8000078678133 L 1472.2000007152558 3039.8000078678133 A 8 8 0 0 1 1464.2000007152558 3047.8000078678133 L 932.2000007152558 3047.8000078678133 L 932.2000007152558 3047.8000078678133 A 8 8 0 0 1 924.2000007152558 3039.8000078678133 L 924.2000007152558 2977.8000078678133 L 924.2000007152558 2977.8000078678133 A 8 8 0 0 1 932.2000007152558 2969.8000078678133 L 1198.2000007152558 2969.8000078678133 Z" fill-opacity="1"/><text fill="rgb(255,255,255)" stroke="none" font-family="Avenir, Helvetica, Arial, sans-serif" font-size="32px" font-style="normal" font-weight="bold" text-decoration="normal" x="1198.2000007152558" y="3024.8000078678133" text-anchor="middle" dominant-baseline="text-after-edge" fill-opacity="1">public_b</text><path fill="rgb(40,167,69)" stroke="none" paint-order="stroke fill markers" d=" M 400 3554.0000100135803 L 666 3554.0000100135803 L 666 3554.0000100135803 A 8 8 0 0 1 674 3562.0000100135803 L 674 3624.0000100135803 L 674 3624.0000100135803 A 8 8 0 0 1 666 3632.0000100135803 L 134 3632.0000100135803 L 134 3632.0000100135803 A 8 8 0 0 1 126 3624.0000100135803 L 126 3562.0000100135803 L 126 3562.0000100135803 A 8 8 0 0 1 134 3554.0000100135803 L 400 3554.0000100135803 Z" fill-opacity="1"/><text fill="rgb(255,255,255)" stroke="none" font-family="Avenir, Helvetica, Arial, sans-serif" font-size="32px" font-style="normal" font-weight="bold" text-decoration="normal" x="400" y="3609.0000100135803" text-anchor="middle" dominant-baseline="text-after-edge" fill-opacity="1">public_a</text><path fill="rgb(40,167,69)" stroke="none" paint-order="stroke fill markers" d=" M 1198.2000007152558 3097.800008583069 L 1464.2000007152558 3097.800008583069 L 1464.2000007152558 3097.800008583069 A 8 8 0 0 1 1472.2000007152558 3105.800008583069 L 1472.2000007152558 3167.800008583069 L 1472.2000007152558 3167.800008583069 A 8 8 0 0 1 1464.2000007152558 3175.800008583069 L 932.2000007152558 3175.800008583069 L 932.2000007152558 3175.800008583069 A 8 8 0 0 1 924.2000007152558 3167.800008583069 L 924.2000007152558 3105.800008583069 L 924.2000007152558 3105.800008583069 A 8 8 0 0 1 932.2000007152558 3097.800008583069 L 1198.2000007152558 3097.800008583069 Z" fill-opacity="1"/><text fill="rgb(255,255,255)" stroke="none" font-family="Avenir, Helvetica, Arial, sans-serif" font-size="32px" font-style="normal" font-weight="bold" text-decoration="normal" x="1198.2000007152558" y="3152.800008583069" text-anchor="middle" dominant-baseline="text-after-edge" fill-opacity="1">public_a</text><path fill="rgb(40,167,69)" stroke="none" paint-order="stroke fill markers" d=" M 400 3682.000010728836 L 666 3682.000010728836 L 666 3682.000010728836 A 8 8 0 0 1 674 3690.000010728836 L 674 3752.000010728836 L 674 3752.000010728836 A 8 8 0 0 1 666 3760.000010728836 L 134 3760.000010728836 L 134 3760.000010728836 A 8 8 0 0 1 126 3752.000010728836 L 126 3690.000010728836 L 126 3690.000010728836 A 8 8 0 0 1 134 3682.000010728836 L 400 3682.000010728836 Z" fill-opacity="1"/><text fill="rgb(255,255,255)" stroke="none" font-family="Avenir, Helvetica, Arial, sans-serif" font-size="32px" font-style="normal" font-weight="bold" text-decoration="normal" x="400" y="3737.000010728836" text-anchor="middle" dominant-baseline="text-after-edge" fill-opacity="1">public_b</text><path fill="rgb(40,167,69)" stroke="none" paint-order="stroke fill markers" d=" M 400 2513.600006437302 L 666 2513.600006437302 L 666 2513.600006437302 A 8 8 0 0 1 674 2521.600006437302 L 674 2583.600006437302 L 674 2583.600006437302 A 8 8 0 0 1 666 2591.600006437302 L 134 2591.600006437302 L 134 2591.600006437302 A 8 8 0 0 1 126 2583.600006437302 L 126 2521.600006437302 L 126 2521.600006437302 A 8 8 0 0 1 134 2513.600006437302 L 400 2513.600006437302 Z" fill-opacity="1"/><text fill="rgb(255,255,255)" stroke="none" font-family="Avenir, Helvetica, Arial, sans-serif" font-size="32px" font-style="normal" font-weight="bold" text-decoration="normal" x="400" y="2568.600006437302" text-anchor="middle" dominant-baseline="text-after-edge" fill-opacity="1">nat</text><path fill="rgb(40,167,69)" stroke="none" paint-order="stroke fill markers" d=" M 400 3810.000011444092 L 666 3810.000011444092 L 666 3810.000011444092 A 8 8 0 0 1 674 3818.000011444092 L 674 3880.000011444092 L 674 3880.000011444092 A 8 8 0 0 1 666 3888.000011444092 L 134 3888.000011444092 L 134 3888.000011444092 A 8 8 0 0 1 126 3880.000011444092 L 126 3818.000011444092 L 126 3818.000011444092 A 8 8 0 0 1 134 3810.000011444092 L 400 3810.000011444092 Z" fill-opacity="1"/><text fill="rgb(255,255,255)" stroke="none" font-family="Avenir, Helvetica, Arial, sans-serif" font-size="32px" font-style="normal" font-weight="bold" text-decoration="normal" x="400" y="3865.000011444092" text-anchor="middle" dominant-baseline="text-after-edge" fill-opacity="1">private_a</text><path fill="rgb(40,167,69)" stroke="none" paint-order="stroke fill markers" d=" M 1198.2000007152558 3225.8000092983248 L 1464.2000007152558 3225.8000092983248 L 1464.2000007152558 3225.8000092983248 A 8 8 0 0 1 1472.2000007152558 3233.8000092983248 L 1472.2000007152558 3295.8000092983248 L 1472.2000007152558 3295.8000092983248 A 8 8 0 0 1 1464.2000007152558 3303.8000092983248 L 932.2000007152558 3303.8000092983248 L 932.2000007152558 3303.8000092983248 A 8 8 0 0 1 924.2000007152558 3295.8000092983248 L 924.2000007152558 3233.8000092983248 L 924.2000007152558 3233.8000092983248 A 8 8 0 0 1 932.2000007152558 3225.8000092983248 L 1198.2000007152558 3225.8000092983248 Z" fill-opacity="1"/><text fill="rgb(255,255,255)" stroke="none" font-family="Avenir, Helvetica, Arial, sans-serif" font-size="32px" font-style="normal" font-weight="bold" text-decoration="normal" x="1198.2000007152558" y="3280.8000092983248" text-anchor="middle" dominant-baseline="text-after-edge" fill-opacity="1">private_b</text><path fill="rgb(40,167,69)" stroke="none" paint-order="stroke fill markers" d=" M 400 3938.0000121593475 L 666 3938.0000121593475 L 666 3938.0000121593475 A 8 8 0 0 1 674 3946.0000121593475 L 674 4008.0000121593475 L 674 4008.0000121593475 A 8 8 0 0 1 666 4016.0000121593475 L 134 4016.0000121593475 L 134 4016.0000121593475 A 8 8 0 0 1 126 4008.0000121593475 L 126 3946.0000121593475 L 126 3946.0000121593475 A 8 8 0 0 1 134 3938.0000121593475 L 400 3938.0000121593475 Z" fill-opacity="1"/><text fill="rgb(255,255,255)" stroke="none" font-family="Avenir, Helvetica, Arial, sans-serif" font-size="32px" font-style="normal" font-weight="bold" text-decoration="normal" x="400" y="3993.0000121593475" text-anchor="middle" dominant-baseline="text-after-edge" fill-opacity="1">private_b</text><path fill="rgb(40,167,69)" stroke="none" paint-order="stroke fill markers" d=" M 1198.2000007152558 2513.600006437302 L 1464.2000007152558 2513.600006437302 L 1464.2000007152558 2513.600006437302 A 8 8 0 0 1 1472.2000007152558 2521.600006437302 L 1472.2000007152558 2583.600006437302 L 1472.2000007152558 2583.600006437302 A 8 8 0 0 1 1464.2000007152558 2591.600006437302 L 932.2000007152558 2591.600006437302 L 932.2000007152558 2591.600006437302 A 8 8 0 0 1 924.2000007152558 2583.600006437302 L 924.2000007152558 2521.600006437302 L 924.2000007152558 2521.600006437302 A 8 8 0 0 1 932.2000007152558 2513.600006437302 L 1198.2000007152558 2513.600006437302 Z" fill-opacity="1"/><text fill="rgb(255,255,255)" stroke="none" font-family="Avenir, Helvetica, Arial, sans-serif" font-size="32px" font-style="normal" font-weight="bold" text-decoration="normal" x="1198.2000007152558" y="2568.600006437302" text-anchor="middle" dominant-baseline="text-after-edge" fill-opacity="1">main</text><path fill="rgb(255,236,236)" stroke="rgb(220,71,125)" paint-order="fill stroke markers" d=" M 2406.0000014305115 1345.6000021457673 L 2672.0000014305115 1345.6000021457673 L 2672.0000014305115 1345.6000021457673 A 8 8 0 0 1 2680.0000014305115 1353.6000021457673 L 2680.0000014305115 1415.6000021457673 L 2680.0000014305115 1415.6000021457673 A 8 8 0 0 1 2672.0000014305115 1423.6000021457673 L 2140.0000014305115 1423.6000021457673 L 2140.0000014305115 1423.6000021457673 A 8 8 0 0 1 2132.0000014305115 1415.6000021457673 L 2132.0000014305115 1353.6000021457673 L 2132.0000014305115 1353.6000021457673 A 8 8 0 0 1 2140.0000014305115 1345.6000021457673 L 2406.0000014305115 1345.6000021457673 Z" fill-opacity="1" stroke-opacity="1" stroke-miterlimit="10" stroke-width="5"/><text fill="rgb(0,0,0)" stroke="none" font-family="Avenir, Helvetica, Arial, sans-serif" font-size="32px" font-style="normal" font-weight="bold" text-decoration="normal" x="2406.0000014305115" y="1400.6000021457673" text-anchor="middle" dominant-baseline="text-after-edge" fill-opacity="1">eks</text><path fill="rgb(40,167,69)" stroke="none" paint-order="stroke fill markers" d=" M 2406.0000014305115 361 L 2672.0000014305115 361 L 2672.0000014305115 361 A 8 8 0 0 1 2680.0000014305115 369 L 2680.0000014305115 431 L 2680.0000014305115 431 A 8 8 0 0 1 2672.0000014305115 439 L 2140.0000014305115 439 L 2140.0000014305115 439 A 8 8 0 0 1 2132.0000014305115 431 L 2132.0000014305115 369 L 2132.0000014305115 369 A 8 8 0 0 1 2140.0000014305115 361 L 2406.0000014305115 361 Z" fill-opacity="1"/><text fill="rgb(255,255,255)" stroke="none" font-family="Avenir, Helvetica, Arial, sans-serif" font-size="32px" font-style="normal" font-weight="bold" text-decoration="normal" x="2406.0000014305115" y="416" text-anchor="middle" dominant-baseline="text-after-edge" fill-opacity="1">nodes</text><path fill="rgb(40,167,69)" stroke="none" paint-order="stroke fill markers" d=" M 2406.0000014305115 689.2000007152558 L 2672.0000014305115 689.2000007152558 L 2672.0000014305115 689.2000007152558 A 8 8 0 0 1 2680.0000014305115 697.2000007152558 L 2680.0000014305115 759.2000007152558 L 2680.0000014305115 759.2000007152558 A 8 8 0 0 1 2672.0000014305115 767.2000007152558 L 2140.0000014305115 767.2000007152558 L 2140.0000014305115 767.2000007152558 A 8 8 0 0 1 2132.0000014305115 759.2000007152558 L 2132.0000014305115 697.2000007152558 L 2132.0000014305115 697.2000007152558 A 8 8 0 0 1 2140.0000014305115 689.2000007152558 L 2406.0000014305115 689.2000007152558 Z" fill-opacity="1"/><text fill="rgb(255,255,255)" stroke="none" font-family="Avenir, Helvetica, Arial, sans-serif" font-size="32px" font-style="normal" font-weight="bold" text-decoration="normal" x="2406.0000014305115" y="744.2000007152558" text-anchor="middle" dominant-baseline="text-after-edge" fill-opacity="1">eks</text><path fill="rgb(40,167,69)" stroke="none" paint-order="stroke fill markers" d=" M 2406.0000014305115 1017.4000014305116 L 2672.0000014305115 1017.4000014305116 L 2672.0000014305115 1017.4000014305116 A 8 8 0 0 1 2680.0000014305115 1025.4000014305116 L 2680.0000014305115 1087.4000014305116 L 2680.0000014305115 1087.4000014305116 A 8 8 0 0 1 2672.0000014305115 1095.4000014305116 L 2140.0000014305115 1095.4000014305116 L 2140.0000014305115 1095.4000014305116 A 8 8 0 0 1 2132.0000014305115 1087.4000014305116 L 2132.0000014305115 1025.4000014305116 L 2132.0000014305115 1025.4000014305116 A 8 8 0 0 1 2140.0000014305115 1017.4000014305116 L 2406.0000014305115 1017.4000014305116 Z" fill-opacity="1"/><text fill="rgb(255,255,255)" stroke="none" font-family="Avenir, Helvetica, Arial, sans-serif" font-size="32px" font-style="normal" font-weight="bold" text-decoration="normal" x="2406.0000014305115" y="1072.4000014305116" text-anchor="middle" dominant-baseline="text-after-edge" fill-opacity="1">eks</text><path fill="rgb(40,167,69)" stroke="none" paint-order="stroke fill markers" d=" M 3609.200002145767 945.2000021457673 L 3875.200002145767 945.2000021457673 L 3875.200002145767 945.2000021457673 A 8 8 0 0 1 3883.200002145767 953.2000021457673 L 3883.200002145767 1015.2000021457673 L 3883.200002145767 1015.2000021457673 A 8 8 0 0 1 3875.200002145767 1023.2000021457673 L 3343.200002145767 1023.2000021457673 L 3343.200002145767 1023.2000021457673 A 8 8 0 0 1 3335.200002145767 1015.2000021457673 L 3335.200002145767 953.2000021457673 L 3335.200002145767 953.2000021457673 A 8 8 0 0 1 3343.200002145767 945.2000021457673 L 3609.200002145767 945.2000021457673 Z" fill-opacity="1"/><text fill="rgb(255,255,255)" stroke="none" font-family="Avenir, Helvetica, Arial, sans-serif" font-size="32px" font-style="normal" font-weight="bold" text-decoration="normal" x="3609.200002145767" y="1000.2000021457673" text-anchor="middle" dominant-baseline="text-after-edge" fill-opacity="1">alb_controller_policy</text><path fill="rgb(40,167,69)" stroke="none" paint-order="stroke fill markers" d=" M 4412.400002861023 361 L 4678.400002861023 361 L 4678.400002861023 361 A 8 8 0 0 1 4686.400002861023 369 L 4686.400002861023 431 L 4686.400002861023 431 A 8 8 0 0 1 4678.400002861023 439 L 4146.400002861023 439 L 4146.400002861023 439 A 8 8 0 0 1 4138.400002861023 431 L 4138.400002861023 369 L 4138.400002861023 369 A 8 8 0 0 1 4146.400002861023 361 L 4412.400002861023 361 Z" fill-opacity="1"/><text fill="rgb(255,255,255)" stroke="none" font-family="Avenir, Helvetica, Arial, sans-serif" font-size="32px" font-style="normal" font-weight="bold" text-decoration="normal" x="4412.400002861023" y="416" text-anchor="middle" dominant-baseline="text-after-edge" fill-opacity="1">eks_node_role</text><path fill="rgb(40,167,69)" stroke="none" paint-order="stroke fill markers" d=" M 3609.200002145767 1073.200002861023 L 3875.200002145767 1073.200002861023 L 3875.200002145767 1073.200002861023 A 8 8 0 0 1 3883.200002145767 1081.200002861023 L 3883.200002145767 1143.200002861023 L 3883.200002145767 1143.200002861023 A 8 8 0 0 1 3875.200002145767 1151.200002861023 L 3343.200002145767 1151.200002861023 L 3343.200002145767 1151.200002861023 A 8 8 0 0 1 3335.200002145767 1143.200002861023 L 3335.200002145767 1081.200002861023 L 3335.200002145767 1081.200002861023 A 8 8 0 0 1 3343.200002145767 1073.200002861023 L 3609.200002145767 1073.200002861023 Z" fill-opacity="1"/><text fill="rgb(255,255,255)" stroke="none" font-family="Avenir, Helvetica, Arial, sans-serif" font-size="32px" font-style="normal" font-weight="bold" text-decoration="normal" x="3609.200002145767" y="1128.200002861023" text-anchor="middle" dominant-baseline="text-after-edge" fill-opacity="1">worker_policy</text><path fill="rgb(40,167,69)" stroke="none" paint-order="stroke fill markers" d=" M 3609.200002145767 1201.2000035762787 L 3875.200002145767 1201.2000035762787 L 3875.200002145767 1201.2000035762787 A 8 8 0 0 1 3883.200002145767 1209.2000035762787 L 3883.200002145767 1271.2000035762787 L 3883.200002145767 1271.2000035762787 A 8 8 0 0 1 3875.200002145767 1279.2000035762787 L 3343.200002145767 1279.2000035762787 L 3343.200002145767 1279.2000035762787 A 8 8 0 0 1 3335.200002145767 1271.2000035762787 L 3335.200002145767 1209.2000035762787 L 3335.200002145767 1209.2000035762787 A 8 8 0 0 1 3343.200002145767 1201.2000035762787 L 3609.200002145767 1201.2000035762787 Z" fill-opacity="1"/><text fill="rgb(255,255,255)" stroke="none" font-family="Avenir, Helvetica, Arial, sans-serif" font-size="32px" font-style="normal" font-weight="bold" text-decoration="normal" x="3609.200002145767" y="1256.2000035762787" text-anchor="middle" dominant-baseline="text-after-edge" fill-opacity="1">cni_policy</text><path fill="rgb(40,167,69)" stroke="none" paint-order="stroke fill markers" d=" M 3609.200002145767 1329.2000042915345 L 3875.200002145767 1329.2000042915345 L 3875.200002145767 1329.2000042915345 A 8 8 0 0 1 3883.200002145767 1337.2000042915345 L 3883.200002145767 1399.2000042915345 L 3883.200002145767 1399.2000042915345 A 8 8 0 0 1 3875.200002145767 1407.2000042915345 L 3343.200002145767 1407.2000042915345 L 3343.200002145767 1407.2000042915345 A 8 8 0 0 1 3335.200002145767 1399.2000042915345 L 3335.200002145767 1337.2000042915345 L 3335.200002145767 1337.2000042915345 A 8 8 0 0 1 3343.200002145767 1329.2000042915345 L 3609.200002145767 1329.2000042915345 Z" fill-opacity="1"/><text fill="rgb(255,255,255)" stroke="none" font-family="Avenir, Helvetica, Arial, sans-serif" font-size="32px" font-style="normal" font-weight="bold" text-decoration="normal" x="3609.200002145767" y="1384.2000042915345" text-anchor="middle" dominant-baseline="text-after-edge" fill-opacity="1">registry_policy</text><path fill="rgb(40,167,69)" stroke="none" paint-order="stroke fill markers" d=" M 4412.400002861023 489.00000071525574 L 4678.400002861023 489.00000071525574 L 4678.400002861023 489.00000071525574 A 8 8 0 0 1 4686.400002861023 497.00000071525574 L 4686.400002861023 559.0000007152557 L 4686.400002861023 559.0000007152557 A 8 8 0 0 1 4678.400002861023 567.0000007152557 L 4146.400002861023 567.0000007152557 L 4146.400002861023 567.0000007152557 A 8 8 0 0 1 4138.400002861023 559.0000007152557 L 4138.400002861023 497.00000071525574 L 4138.400002861023 497.00000071525574 A 8 8 0 0 1 4146.400002861023 489.00000071525574 L 4412.400002861023 489.00000071525574 Z" fill-opacity="1"/><text fill="rgb(255,255,255)" stroke="none" font-family="Avenir, Helvetica, Arial, sans-serif" font-size="32px" font-style="normal" font-weight="bold" text-decoration="normal" x="4412.400002861023" y="544.0000007152557" text-anchor="middle" dominant-baseline="text-after-edge" fill-opacity="1">alb_controller_role</text><path fill="rgb(40,167,69)" stroke="none" paint-order="stroke fill markers" d=" M 4412.400002861023 617.0000014305115 L 4678.400002861023 617.0000014305115 L 4678.400002861023 617.0000014305115 A 8 8 0 0 1 4686.400002861023 625.0000014305115 L 4686.400002861023 687.0000014305115 L 4686.400002861023 687.0000014305115 A 8 8 0 0 1 4678.400002861023 695.0000014305115 L 4146.400002861023 695.0000014305115 L 4146.400002861023 695.0000014305115 A 8 8 0 0 1 4138.400002861023 687.0000014305115 L 4138.400002861023 625.0000014305115 L 4138.400002861023 625.0000014305115 A 8 8 0 0 1 4146.400002861023 617.0000014305115 L 4412.400002861023 617.0000014305115 Z" fill-opacity="1"/><text fill="rgb(255,255,255)" stroke="none" font-family="Avenir, Helvetica, Arial, sans-serif" font-size="32px" font-style="normal" font-weight="bold" text-decoration="normal" x="4412.400002861023" y="672.0000014305115" text-anchor="middle" dominant-baseline="text-after-edge" fill-opacity="1">eks_cluster_role</text><path fill="rgb(40,167,69)" stroke="none" paint-order="stroke fill markers" d=" M 3609.200002145767 1457.2000050067902 L 3875.200002145767 1457.2000050067902 L 3875.200002145767 1457.2000050067902 A 8 8 0 0 1 3883.200002145767 1465.2000050067902 L 3883.200002145767 1527.2000050067902 L 3883.200002145767 1527.2000050067902 A 8 8 0 0 1 3875.200002145767 1535.2000050067902 L 3343.200002145767 1535.2000050067902 L 3343.200002145767 1535.2000050067902 A 8 8 0 0 1 3335.200002145767 1527.2000050067902 L 3335.200002145767 1465.2000050067902 L 3335.200002145767 1465.2000050067902 A 8 8 0 0 1 3343.200002145767 1457.2000050067902 L 3609.200002145767 1457.2000050067902 Z" fill-opacity="1"/><text fill="rgb(255,255,255)" stroke="none" font-family="Avenir, Helvetica, Arial, sans-serif" font-size="32px" font-style="normal" font-weight="bold" text-decoration="normal" x="3609.200002145767" y="1512.2000050067902" text-anchor="middle" dominant-baseline="text-after-edge" fill-opacity="1">cluster_policy</text><path fill="rgb(255,236,236)" stroke="rgb(220,71,125)" paint-order="fill stroke markers" d=" M 3609.200002145767 361 L 3875.200002145767 361 L 3875.200002145767 361 A 8 8 0 0 1 3883.200002145767 369 L 3883.200002145767 431 L 3883.200002145767 431 A 8 8 0 0 1 3875.200002145767 439 L 3343.200002145767 439 L 3343.200002145767 439 A 8 8 0 0 1 3335.200002145767 431 L 3335.200002145767 369 L 3335.200002145767 369 A 8 8 0 0 1 3343.200002145767 361 L 3609.200002145767 361 Z" fill-opacity="1" stroke-opacity="1" stroke-miterlimit="10" stroke-width="5"/><text fill="rgb(0,0,0)" stroke="none" font-family="Avenir, Helvetica, Arial, sans-serif" font-size="32px" font-style="normal" font-weight="bold" text-decoration="normal" x="3609.200002145767" y="416" text-anchor="middle" dominant-baseline="text-after-edge" fill-opacity="1">alb_controller_assume_role</text><path fill="rgb(255,247,224)" stroke="rgb(255,193,7)" paint-order="fill stroke markers" d=" M 300 261 L 566 261 L 566 261 A 8 8 0 0 1 574 269 L 574 331 L 574 331 A 8 8 0 0 1 566 339 L 34 339 L 34 339 A 8 8 0 0 1 26 331 L 26 269 L 26 269 A 8 8 0 0 1 34 261 L 300 261 Z" fill-opacity="1" stroke-opacity="1" stroke-miterlimit="10" stroke-width="5"/><text fill="rgb(0,0,0)" stroke="none" font-family="Avenir, Helvetica, Arial, sans-serif" font-size="32px" font-style="normal" font-weight="bold" text-decoration="normal" x="300" y="316" text-anchor="middle" dominant-baseline="text-after-edge" fill-opacity="1">cluster_name</text><path fill="rgb(255,247,224)" stroke="rgb(255,193,7)" paint-order="fill stroke markers" d=" M 300 394.00000071525574 L 566 394.00000071525574 L 566 394.00000071525574 A 8 8 0 0 1 574 402.00000071525574 L 574 464.00000071525574 L 574 464.00000071525574 A 8 8 0 0 1 566 472.00000071525574 L 34 472.00000071525574 L 34 472.00000071525574 A 8 8 0 0 1 26 464.00000071525574 L 26 402.00000071525574 L 26 402.00000071525574 A 8 8 0 0 1 34 394.00000071525574 L 300 394.00000071525574 Z" fill-opacity="1" stroke-opacity="1" stroke-miterlimit="10" stroke-width="5"/><text fill="rgb(0,0,0)" stroke="none" font-family="Avenir, Helvetica, Arial, sans-serif" font-size="32px" font-style="normal" font-weight="bold" text-decoration="normal" x="300" y="449.00000071525574" text-anchor="middle" dominant-baseline="text-after-edge" fill-opacity="1">cluster_endpoint</text><path fill="rgb(225,240,255)" stroke="rgb(29,122,218)" paint-order="fill stroke markers" d=" M 1303.0000007152557 261 L 1569.0000007152557 261 L 1569.0000007152557 261 A 8 8 0 0 1 1577.0000007152557 269 L 1577.0000007152557 331 L 1577.0000007152557 331 A 8 8 0 0 1 1569.0000007152557 339 L 1037.0000007152557 339 L 1037.0000007152557 339 A 8 8 0 0 1 1029.0000007152557 331 L 1029.0000007152557 269 L 1029.0000007152557 269 A 8 8 0 0 1 1037.0000007152557 261 L 1303.0000007152557 261 Z" fill-opacity="1" stroke-opacity="1" stroke-miterlimit="10" stroke-width="5"/><text fill="rgb(0,0,0)" stroke="none" font-family="Avenir, Helvetica, Arial, sans-serif" font-size="32px" font-style="normal" font-weight="bold" text-decoration="normal" x="1303.0000007152557" y="316" text-anchor="middle" dominant-baseline="text-after-edge" fill-opacity="1">aws_region</text><path fill="rgb(225,240,255)" stroke="rgb(29,122,218)" paint-order="fill stroke markers" d=" M 1303.0000007152557 394.00000071525574 L 1569.0000007152557 394.00000071525574 L 1569.0000007152557 394.00000071525574 A 8 8 0 0 1 1577.0000007152557 402.00000071525574 L 1577.0000007152557 464.00000071525574 L 1577.0000007152557 464.00000071525574 A 8 8 0 0 1 1569.0000007152557 472.00000071525574 L 1037.0000007152557 472.00000071525574 L 1037.0000007152557 472.00000071525574 A 8 8 0 0 1 1029.0000007152557 464.00000071525574 L 1029.0000007152557 402.00000071525574 L 1029.0000007152557 402.00000071525574 A 8 8 0 0 1 1037.0000007152557 394.00000071525574 L 1303.0000007152557 394.00000071525574 Z" fill-opacity="1" stroke-opacity="1" stroke-miterlimit="10" stroke-width="5"/><text fill="rgb(0,0,0)" stroke="none" font-family="Avenir, Helvetica, Arial, sans-serif" font-size="32px" font-style="normal" font-weight="bold" text-decoration="normal" x="1303.0000007152557" y="449.00000071525574" text-anchor="middle" dominant-baseline="text-after-edge" fill-opacity="1">cluster_name</text><g transform="scale(5,5) translate(-56.2,-10.100000000000001)"/></g></svg>